<svg width="900" height="480" xmlns="http://www.w3.org/2000/svg">
<defs>
<linearGradient id="pb" x1="0" y1="0" x2="0" y2="1"><stop offset="0%" stop-color="#3B82F6" stop-opacity="0.2"/><stop offset="100%" stop-color="#3B82F6" stop-opacity="0.02"/></linearGradient>
<linearGradient id="pc" x1="0" y1="0" x2="0" y2="1"><stop offset="0%" stop-color="#8B5CF6" stop-opacity="0.2"/><stop offset="100%" stop-color="#8B5CF6" stop-opacity="0.02"/></linearGradient>
</defs>
<rect width="900" height="480" fill="#111217"/>
<rect width="900" height="44" fill="#181b1f"/>
<text x="16" y="27" font-family="Inter,sans-serif" font-size="13" font-weight="600" fill="#E5E7EB">Outbox Health</text>
<text x="16" y="40" font-family="Inter,sans-serif" font-size="10" fill="#6B7280">Pending events · Relay latency · Lock contention · Stale-lock reaper · Last 30 min</text>
<rect x="728" y="12" width="80" height="20" rx="3" fill="#1C3829"/>
<text x="768" y="25" text-anchor="middle" font-family="Inter,sans-serif" font-size="10" font-weight="600" fill="#34D399">● RELAY HEALTHY</text>
<text x="820" y="25" font-family="Inter,sans-serif" font-size="10" fill="#6B7280">14:32 UTC</text>

<!-- Stat cards -->
<rect x="12" y="56" width="158" height="74" rx="6" fill="#181b1f"/>
<text x="22" y="74" font-family="Inter,sans-serif" font-size="11" fill="#9DA5B4">Pending (gateway)</text>
<text x="22" y="106" font-family="Inter,sans-serif" font-size="30" font-weight="700" fill="#E5E7EB">6</text>
<text x="22" y="123" font-family="Inter,sans-serif" font-size="10" fill="#34D399">p99 drain &lt;6s ↓</text>
<rect x="178" y="56" width="158" height="74" rx="6" fill="#181b1f"/>
<text x="188" y="74" font-family="Inter,sans-serif" font-size="11" fill="#9DA5B4">Pending (consumer)</text>
<text x="188" y="106" font-family="Inter,sans-serif" font-size="30" font-weight="700" fill="#E5E7EB">3</text>
<text x="188" y="123" font-family="Inter,sans-serif" font-size="10" fill="#6B7280">low · normal</text>
<rect x="344" y="56" width="158" height="74" rx="6" fill="#181b1f"/>
<text x="354" y="74" font-family="Inter,sans-serif" font-size="11" fill="#9DA5B4">Published (window)</text>
<text x="354" y="106" font-family="Inter,sans-serif" font-size="30" font-weight="700" fill="#E5E7EB">7,431</text>
<text x="354" y="123" font-family="Inter,sans-serif" font-size="10" fill="#6B7280">last 30 min</text>
<rect x="510" y="56" width="158" height="74" rx="6" fill="#2D1F07"/>
<text x="520" y="74" font-family="Inter,sans-serif" font-size="11" fill="#FDE68A">Lock contentions</text>
<text x="520" y="106" font-family="Inter,sans-serif" font-size="30" font-weight="700" fill="#F59E0B">2</text>
<text x="520" y="123" font-family="Inter,sans-serif" font-size="10" fill="#FDE68A">fencing token fired ×2</text>
<rect x="676" y="56" width="212" height="74" rx="6" fill="#181b1f"/>
<text x="686" y="74" font-family="Inter,sans-serif" font-size="11" fill="#9DA5B4">Relay throughput</text>
<text x="686" y="106" font-family="Inter,sans-serif" font-size="30" font-weight="700" fill="#E5E7EB">248/s</text>
<text x="686" y="123" font-family="Inter,sans-serif" font-size="10" fill="#6B7280">avg over window</text>

<!-- Pending events chart -->
<rect x="12" y="142" width="430" height="158" rx="6" fill="#181b1f"/>
<text x="22" y="160" font-family="Inter,sans-serif" font-size="11" fill="#9DA5B4">Pending outbox events — gateway + consumer</text>
<rect x="22" y="168" width="410" height="120" rx="3" fill="#111217"/>
<line x1="22" y1="198" x2="442" y2="198" stroke="#1F2937" stroke-width="1"/>
<line x1="22" y1="228" x2="442" y2="228" stroke="#1F2937" stroke-width="1"/>
<line x1="22" y1="258" x2="442" y2="258" stroke="#1F2937" stroke-width="1"/>
<text x="17" y="201" text-anchor="end" font-family="Inter,sans-serif" font-size="9" fill="#4B5563">30</text>
<text x="17" y="231" text-anchor="end" font-family="Inter,sans-serif" font-size="9" fill="#4B5563">20</text>
<text x="17" y="261" text-anchor="end" font-family="Inter,sans-serif" font-size="9" fill="#4B5563">10</text>
<path d="M28 270 C60 262 100 268 140 255 C180 242 220 260 260 252 C300 244 340 258 380 248 C410 240 430 252 442 248 L442 288 L28 288 Z" fill="url(#pb)"/>
<path d="M28 270 C60 262 100 268 140 255 C180 242 220 260 260 252 C300 244 340 258 380 248 C410 240 430 252 442 248" fill="none" stroke="#3B82F6" stroke-width="2"/>
<path d="M28 278 C60 272 100 276 140 267 C180 258 220 270 260 264 C300 258 340 268 380 260 C410 254 430 262 442 260 L442 288 L28 288 Z" fill="url(#pc)"/>
<path d="M28 278 C60 272 100 276 140 267 C180 258 220 270 260 264 C300 258 340 268 380 260 C410 254 430 262 442 260" fill="none" stroke="#8B5CF6" stroke-width="1.5"/>
<circle cx="300" cy="160" r="3" fill="#3B82F6"/>
<text x="306" y="164" font-family="Inter,sans-serif" font-size="9" fill="#9DA5B4">Gateway</text>
<circle cx="356" cy="160" r="3" fill="#8B5CF6"/>
<text x="362" y="164" font-family="Inter,sans-serif" font-size="9" fill="#9DA5B4">Consumer</text>

<!-- Relay latency percentiles -->
<rect x="452" y="142" width="436" height="158" rx="6" fill="#181b1f"/>
<text x="462" y="160" font-family="Inter,sans-serif" font-size="11" fill="#9DA5B4">Relay latency percentiles — outbox_relay_latency_ms (ms)</text>
<rect x="462" y="168" width="416" height="120" rx="3" fill="#111217"/>
<line x1="462" y1="198" x2="878" y2="198" stroke="#1F2937" stroke-width="1"/>
<line x1="462" y1="222" x2="878" y2="222" stroke="#1F2937" stroke-width="1"/>
<line x1="462" y1="246" x2="878" y2="246" stroke="#1F2937" stroke-width="1"/>
<line x1="462" y1="270" x2="878" y2="270" stroke="#1F2937" stroke-width="1"/>
<text x="457" y="201" text-anchor="end" font-family="Inter,sans-serif" font-size="9" fill="#4B5563">80ms</text>
<text x="457" y="225" text-anchor="end" font-family="Inter,sans-serif" font-size="9" fill="#4B5563">40ms</text>
<text x="457" y="249" text-anchor="end" font-family="Inter,sans-serif" font-size="9" fill="#4B5563">20ms</text>
<text x="457" y="273" text-anchor="end" font-family="Inter,sans-serif" font-size="9" fill="#4B5563">8ms</text>
<path d="M468 270 C510 268 550 272 590 266 C630 260 670 268 710 264 C750 260 790 265 830 262 C855 260 870 263 878 261" fill="none" stroke="#10B981" stroke-width="2"/>
<path d="M468 246 C510 243 550 248 590 240 C630 233 670 242 710 237 C750 232 790 238 830 234 C855 231 870 235 878 233" fill="none" stroke="#F59E0B" stroke-width="1.5" stroke-dasharray="5 3"/>
<path d="M468 222 C510 218 550 224 590 215 C630 207 670 218 710 212 C750 206 790 214 830 208 C855 204 870 210 878 206" fill="none" stroke="#EF4444" stroke-width="1.5" stroke-dasharray="3 3"/>
<circle cx="680" cy="160" r="3" fill="#10B981"/>
<text x="686" y="164" font-family="Inter,sans-serif" font-size="9" fill="#9DA5B4">p50 ~8ms</text>
<circle cx="730" cy="160" r="3" fill="#F59E0B"/>
<text x="736" y="164" font-family="Inter,sans-serif" font-size="9" fill="#9DA5B4">p95 ~22ms</text>
<circle cx="786" cy="160" r="3" fill="#EF4444"/>
<text x="792" y="164" font-family="Inter,sans-serif" font-size="9" fill="#9DA5B4">p99 ~38ms</text>

<!-- Lock contention + reaper correlation (KEY PANEL) -->
<rect x="12" y="312" width="430" height="130" rx="6" fill="#181b1f"/>
<text x="22" y="330" font-family="Inter,sans-serif" font-size="11" fill="#9DA5B4">Lock contention — outbox_fenced_publishes_total</text>
<rect x="22" y="338" width="410" height="92" rx="3" fill="#111217"/>
<line x1="22" y1="396" x2="442" y2="396" stroke="#1F2937" stroke-width="1"/>
<line x1="22" y1="420" x2="442" y2="420" stroke="#1F2937" stroke-width="1"/>
<text x="17" y="388" text-anchor="end" font-family="Inter,sans-serif" font-size="9" fill="#4B5563">2</text>
<text x="17" y="411" text-anchor="end" font-family="Inter,sans-serif" font-size="9" fill="#4B5563">1</text>
<!-- Two spikes at t=18 and t=27 min marks, labeled -->
<rect x="188" y="382" width="16" height="38" rx="2" fill="#EF4444" opacity="0.85"/>
<rect x="318" y="382" width="16" height="38" rx="2" fill="#EF4444" opacity="0.85"/>
<!-- Annotation lines -->
<line x1="196" y1="372" x2="196" y2="338" stroke="#EF4444" stroke-width="0.5" stroke-dasharray="3 2" opacity="0.5"/>
<text x="172" y="348" font-family="Inter,sans-serif" font-size="8" fill="#FCA5A5">t=18m spike</text>
<line x1="326" y1="372" x2="326" y2="338" stroke="#EF4444" stroke-width="0.5" stroke-dasharray="3 2" opacity="0.5"/>
<text x="302" y="348" font-family="Inter,sans-serif" font-size="8" fill="#FCA5A5">t=27m spike</text>

<!-- Stale-lock reaper panel -->
<rect x="452" y="312" width="436" height="130" rx="6" fill="#181b1f"/>
<text x="462" y="330" font-family="Inter,sans-serif" font-size="11" fill="#9DA5B4">Stale-lock reaper — outbox_reaper_reclaimed_total (correlates with above)</text>
<rect x="462" y="338" width="416" height="92" rx="3" fill="#111217"/>
<line x1="462" y1="396" x2="878" y2="396" stroke="#1F2937" stroke-width="1"/>
<line x1="462" y1="420" x2="878" y2="420" stroke="#1F2937" stroke-width="1"/>
<text x="457" y="388" text-anchor="end" font-family="Inter,sans-serif" font-size="9" fill="#4B5563">2</text>
<text x="457" y="411" text-anchor="end" font-family="Inter,sans-serif" font-size="9" fill="#4B5563">1</text>
<!-- Single spike at t=18m (correlated) -->
<rect x="638" y="382" width="18" height="38" rx="2" fill="#F59E0B" opacity="0.85"/>
<line x1="647" y1="372" x2="647" y2="338" stroke="#F59E0B" stroke-width="0.5" stroke-dasharray="3 2" opacity="0.5"/>
<text x="620" y="348" font-family="Inter,sans-serif" font-size="8" fill="#FDE68A">t=18m · correlated ↑</text>
<!-- Callout box -->
<rect x="462" y="400" width="416" height="28" rx="3" fill="#1F1A0A"/>
<text x="670" y="417" text-anchor="middle" font-family="Inter,sans-serif" font-size="9" fill="#FDE68A">Fencing spike + reaper spike at same timestamp = stale relay detected and displaced correctly</text>

<!-- Footer -->
<rect x="0" y="462" width="900" height="18" fill="#0D0F12"/>
<text x="16" y="474" font-family="Inter,sans-serif" font-size="9" fill="#374151">outbox_pending_events · outbox_relay_latency_ms · outbox_fenced_publishes_total · outbox_reaper_reclaimed_total</text>
<text x="810" y="474" font-family="Inter,sans-serif" font-size="9" fill="#374151">Dashboard UID: cdmp-outbox-health</text>
</svg>
